<svg id="Layer_1" data-name="Layer 1" xmlns="http://www.w3.org/2000/svg" viewBox="0 0 964.7 332"><defs><style>.cls-1,.cls-3,.cls-4,.cls-5{fill:none;stroke-miterlimit:10;}.cls-1,.cls-3,.cls-4{stroke:#8dcda0;}.cls-1{stroke-width:6px;}.cls-2{fill:#8dcda0;}.cls-3,.cls-5{stroke-width:3px;}.cls-4{stroke-width:2px;}.cls-5{stroke:#8ccc9f;}</style></defs><title>derails-drawings</title><circle class="cls-1" cx="885.62" cy="250.47" r="48.72"/><circle class="cls-1" cx="619.7" cy="244.03" r="67.31"/><path class="cls-2" d="M710.57,147.48a4.75,4.75,0,0,0-2.54-2.12,4.19,4.19,0,0,0-2.12,0c-4.13,1-8.52.49-12.71,1.27-7,1.29-21.44,1.74-29.23,1.67-20.47-.18-31.77-4.68-38.13-7.64-4.88-2.29-8-5.91-14.4-8.06-2.12-.71-10.2-3.41-16.52.83a9.09,9.09,0,0,0-3.39,3.39c-3.16,6.74,6.59,25.24,20.74,28.4,3.81.85,41.52-2.94,54.23-3.78,20.92-1.38,42.8-9.72,43.22-11A19.37,19.37,0,0,0,710.57,147.48Z"/><path class="cls-3" d="M773.26,75.47c2.19-3.57,10.77-16.64,26.46-19.55,3.22-.59,11.35-2.1,17.69,2.06,5.25,3.45,6.45,9.28,7.3,10.85C831.27,81,854,149.36,886.84,248.22"/><path class="cls-3" d="M785.94,119.93c.13-5.82,8.42-22.75,14.79-34.62,5.91-11,12.71-12.43,15.79-12.88,4-.59,8.68,1.49,10.87,2.47"/><path class="cls-3" d="M866.71,189.82c-8.41-1-24.44-.55-38.69,2-33.38,5.85-56.89,27.26-59.89,23.75s18-28.32,39.73-44.73c16.46-12.45,33.71-21.29,44.85-25"/><path class="cls-3" d="M634,158.52c22.69,17.34,74.36,41.26,97.05,58.59"/><path class="cls-3" d="M795.66,181c-14.7-2.33-41.16.83-62.39,5.31-21.55,4.54-74.91,20.12-108.18,51.72"/><path class="cls-3" d="M774.83,234.68c.83-1.3,4.43-7.25,2.18-12.58-2.36-5.59-9.64-6.92-14.73-7.85a49.55,49.55,0,0,0-21.73,1c-10.48,2.92-30.4,5.63-56.84,6.58"/><rect class="cls-3" x="779.46" y="119.25" width="6.35" height="24.15" transform="translate(1485.25 500.26) rotate(-161.82)"/><rect class="cls-3" x="759.45" y="68.67" width="6.36" height="33.43" transform="translate(1232.89 691.8) rotate(-134.18)"/><rect class="cls-3" x="740.85" y="191.82" width="21.18" height="3.39" transform="translate(1525.92 241.55) rotate(169.11)"/><rect class="cls-3" x="753.14" y="265.22" width="12.89" height="3.71" transform="translate(1555.95 385.82) rotate(169.11)"/><line class="cls-3" x1="757.63" y1="231.75" x2="759.93" y2="264.25"/><line class="cls-3" x1="770" y1="219.05" x2="744.41" y2="244.4"/><line class="cls-3" x1="769.43" y1="244.92" x2="745.92" y2="217.33"/><circle class="cls-3" cx="756.98" cy="231.92" r="18.01"/><line class="cls-3" x1="914.52" y1="211.55" x2="857.47" y2="290.71"/><line class="cls-3" x1="884.22" y1="201.73" x2="887.92" y2="298.41"/><line class="cls-3" x1="925.51" y1="277.74" x2="848.15" y2="219.12"/><line class="cls-3" x1="837.4" y1="256.57" x2="932.96" y2="238.77"/><line class="cls-3" x1="927.2" y1="224.35" x2="843.74" y2="274.87"/><line class="cls-3" x1="861.19" y1="209.01" x2="913.04" y2="291.71"/><line class="cls-3" x1="866.52" y1="294.76" x2="904.32" y2="205.72"/><line class="cls-3" x1="841.93" y1="228.87" x2="931.48" y2="265.43"/><line class="cls-3" x1="649.33" y1="184.08" x2="591.46" y2="304.39"/><line class="cls-3" x1="632.16" y1="180.73" x2="607.64" y2="309.8"/><line class="cls-3" x1="613.23" y1="178.1" x2="635.29" y2="309.23"/><line class="cls-3" x1="593.7" y1="183.93" x2="654.39" y2="303.37"/><line class="cls-3" x1="686.51" y1="234.31" x2="554.64" y2="249.09"/><line class="cls-3" x1="580.21" y1="188.48" x2="660.31" y2="297.85"/><line class="cls-3" x1="579.27" y1="296.72" x2="623.46" y2="242.97"/><line class="cls-3" x1="566.95" y1="284.8" x2="623.46" y2="242.97"/><line class="cls-3" x1="557.99" y1="273.54" x2="623.46" y2="242.97"/><line class="cls-3" x1="682.86" y1="267.61" x2="561.74" y2="209.25"/><line class="cls-3" x1="686.97" y1="245.81" x2="552.98" y2="236.66"/><path class="cls-2" d="M461.05,68.66a3.9,3.9,0,0,0-2.06,0l-2.82.66,1.27,2.91,3-.63a2.94,2.94,0,0,0,1.65-.74c.08-.1.32-.41,0-1.17A1.84,1.84,0,0,0,461.05,68.66Z"/><path class="cls-2" d="M550,22.14c-6.35-4.14-17.3,2.91-32.45,9.55-26,11.4-28.69,5.95-62.91,18.38-16.51,6-14.32,6.7-41.55,18.37C365.51,88.81,347.6,91.5,348.28,96.52c.94,7.07,37.89,11.81,71.06,7.16,2.05-.28,15.51-3.4,42.34-9.62,43.41-10,45.1-10.64,51.7-10.89,25.58-1,41.54,6.18,46.28-.61,1.76-2.52-.19-3.86-2.1-15.23-2.1-12.54-.58-16-3.13-31.51C552.54,24.32,551.15,22.92,550,22.14ZM427,86.81c-.82.2-1.63.41-2.45.63l-.57.15-1.86-4.22c-2,.62-4.07,1.26-6,1.91l1.77,4-.66.2-2.39.73-.59.18-4.41-10.06.57-.23,2.33-.92.61-.23,1.72,3.91c1.95-.67,4-1.33,6-2l-1.8-4.11.62-.21,2.38-.82.61-.2,4.84,11.06Zm19.78-5.54c-.82,1.09-2.32,1.84-4.57,2.29h0a10.42,10.42,0,0,1-5.52-.13,5.52,5.52,0,0,1-3.35-3.12l-3.11-7.08.66-.2,2.43-.73.58-.17,3,6.93a3,3,0,0,0,1.56,1.72,4.59,4.59,0,0,0,2.74.07,3.13,3.13,0,0,0,2.09-1.06,2.22,2.22,0,0,0-.15-2L440,70.42l.69-.19,2.45-.66.57-.15L447,77A4,4,0,0,1,446.81,81.27Zm20.27-2.33-.24-.17c-2-1.43-4-2.83-5.91-4.17l-2.27.45L460.82,80l-.78.13-2.5.43-.53.09-5.77-13.16.7-.18,6.16-1.52a8.05,8.05,0,0,1,4.74.1,5.07,5.07,0,0,1,3,2.85,3.46,3.46,0,0,1-1.15,4.53c1.93,1.34,3.89,2.72,5.84,4.11l1.14.82Zm23.83-4-2.91.51-.31,0-.24-.19c-2.05-1.59-4.12-3.17-6.16-4.71l-2.25.44,2.42,5.51-3.82.63-6.41-14.62.71-.17,6.16-1.5a7.67,7.67,0,0,1,4.8.2,5.78,5.78,0,0,1,3.16,3.15,4.37,4.37,0,0,1,.3,3.15A3.72,3.72,0,0,1,485,69.24c2,1.53,4.1,3.1,6.16,4.69l1,.81Zm20.6-4.07-2.62.58-.41.09-.26-.31-3-3.47c-1.75.41-3.59.82-5.48,1.23.08,1.26.16,2.52.23,3.76l0,.51-.54.11-2.58.48-.76.15,0-.71c-.23-5.31-.52-10.82-.88-16.39l0-.47.49-.13,2.88-.82.43-.12.28.31c4.12,4.61,8.35,9.4,12.57,14.25l.63.73Zm19.56-5.19-2.43.75-.59.17-3.27-7.47c-1.95.65-4,1.29-6,1.91l3.18,7.28-.69.18-2.44.63-.57.14-7.67-17.5.62-.21,2.36-.8.6-.21,3.1,7.06c2-.64,4.06-1.3,6-2l-3.18-7.26.58-.23,2.33-.91.63-.25,8.1,18.49Z"/><path class="cls-2" d="M499.16,60.73l0,.21c.12,1.6.23,3.16.33,4.7l3.22-.75-3.31-3.83Z"/><path class="cls-2" d="M481.13,64.06a3.43,3.43,0,0,0-2.05,0l-2.83.66,1.49,3.38q1.51-.3,3-.63a2.61,2.61,0,0,0,1.59-.77,1.42,1.42,0,0,0-.07-1.38A2.15,2.15,0,0,0,481.13,64.06Z"/><line class="cls-4" x1="539.86" y1="40.97" x2="598.47" y2="148.76"/><path class="cls-2" d="M192.62,201.57q120.12,2.87,240.23-2.82c1.92-.09,1.93-3.09,0-3q-120,5.69-240.23,2.82c-1.93,0-1.93,3,0,3Z"/><path class="cls-2" d="M174.64,239.54q102.24,2.15,204.47-1.82,29.42-1.16,58.79-2.81c1.92-.11,1.93-3.11,0-3q-102.09,5.73-204.4,5.37-29.43-.12-58.86-.74c-1.93,0-1.93,3,0,3Z"/><path class="cls-2" d="M78.21,300.74q149.7-7,299.5-12,41.94-1.38,83.89-2.59c1.92-.06,1.93-3.06,0-3Q311.78,287.51,162.05,294q-41.93,1.82-83.84,3.79c-1.93.09-1.94,3.09,0,3Z"/><line class="cls-5" x1="751.71" y1="194.82" x2="757.71" y2="231.82"/></svg>