<svg id="Layer_1" data-name="Layer 1" xmlns="http://www.w3.org/2000/svg" viewBox="0 0 443 276"><defs><style>.cls-1{fill:#8dcda0;}</style></defs><title>derails-drawings</title><path class="cls-1" d="M197.16,31.93A60.79,60.79,0,0,0,190,18.44c-1.66-2.34-5.57-.1-3.89,2.27a56,56,0,0,1,6.71,12.42c1,2.67,5.37,1.51,4.34-1.2Z"/><path class="cls-1" d="M213.64,28.22a101.27,101.27,0,0,0-.35-16.43c-.3-2.85-4.8-2.88-4.5,0a101.27,101.27,0,0,1,.35,16.43c-.17,2.89,4.33,2.88,4.5,0Z"/><path class="cls-1" d="M225.65,34.5a51.2,51.2,0,0,1,4.45-11.4c1.38-2.55-2.51-4.82-3.88-2.27a56,56,0,0,0-4.91,12.47c-.73,2.81,3.61,4,4.34,1.2Z"/><path class="cls-1" d="M307.63,135.25c-.06-3.92,2.15-8.27,3.69-11.72,1.74-3.93,3.57-8.77,7-11.49,2.27-1.8-.93-5-3.18-3.19-4.24,3.35-6.42,9.29-8.47,14.11-1.64,3.83-3.63,8-3.56,12.29.05,2.89,4.55,2.9,4.5,0Z"/><path class="cls-1" d="M318,112.35c3.34-1.3,7.64-3.08,9.76.55,1.59,2.72-.64,6.5-1.68,9.24a59.07,59.07,0,0,0-4,15.55c-.84,9.45.77,18.94-.16,28.4a48.69,48.69,0,0,1-3.67,13.6c-2.24,5.55-7.17,13.91-12.92,16.57-2.62,1.21-.34,5.09,2.27,3.88,3-1.4,5.63-4.75,7.7-7.24a41.53,41.53,0,0,0,7-11.33,55.93,55.93,0,0,0,4.3-18.25c.32-6-.15-11.94-.26-17.93a57.82,57.82,0,0,1,4.08-22c1.71-4.55,4.53-10.53.42-14.68-3.86-3.9-9.59-2.38-14-.65-2.67,1-1.51,5.39,1.19,4.34Z"/><path class="cls-1" d="M315.47,195.14c11.27,11.77,26.57,18.13,38.9,28.57,2.2,1.86,5.4-1.31,3.19-3.18C345.23,210.1,329.9,203.7,318.65,192c-2-2.09-5.19,1.09-3.18,3.18Z"/><path class="cls-1" d="M310.85,149.32c-1-4.36-1.79-8.77-3-13.07-1.38-4.82-3.57-9.34-5.4-14-3.47-8.86-6.45-17.91-9.51-26.92s-6.18-17.84-9.85-26.54c-2.31-5.49-3.36-12-6.83-16.89-5.08-7.23-11.49.43-12.89,6.18-2.29,9.43-.55,20,1.36,29.36,2.44,12,6.14,24.69,13,35,1.59,2.4,5.49.15,3.89-2.27-5-7.61-8.07-16.49-10.45-25.24-2.56-9.41-4.48-19.33-4.17-29.13.09-3.2.31-6.94,1.9-9.81.43-.79,1.3-2.28,2.34-2.41,1.71-.23,3,3.84,3.57,5.34,5.15,13,10,26.16,14.44,39.39,2.95,8.72,5.87,17.46,9.25,26a175,175,0,0,1,8.08,26.16c.64,2.83,5,1.63,4.34-1.19Z"/><path class="cls-1" d="M269.82,89.67a191.11,191.11,0,0,0-8.91-28.23c-2.82-7-8.42-17.17-15.94-8.33-7.92,9.3-6.11,22.2-2.73,32.93,4.55,14.47,9.77,28.74,14.68,43.09.93,2.72,5.28,1.55,4.34-1.2q-5.55-16.25-11.11-32.48c-3.55-10.4-9-22.48-5.08-33.52.72-2,2.49-6.41,4.65-7.3,2.76-1.13,4.17,2.12,5.12,4.06a98,98,0,0,1,4.22,10.61,203,203,0,0,1,6.42,21.57c.66,2.82,5,1.62,4.34-1.2Z"/><path class="cls-1" d="M242,66.55c-4.25-3.65-8.55-.62-11.52,3.15a25.31,25.31,0,0,0-5.21,17.17c.37,8,3.11,15.79,5.47,23.38,3,9.73,6.46,19.33,10.25,28.79,1.06,2.66,5.42,1.5,4.34-1.2a391.64,391.64,0,0,1-13-37.7c-1.74-6.06-3.43-12.64-2.32-19,.32-1.85,5.21-14.48,8.77-11.43,2.18,1.88,5.38-1.29,3.18-3.18Z"/><path class="cls-1" d="M316.39,262.05c-10-12.68-20.13-25.43-31.95-36.53s-26-19.1-35.93-32.06c-9.16-12-14.9-26.17-19.08-40.57-2.09-7.2-3.66-14.51-5.42-21.8-2-8.19-3.86-15.78-2.43-24.26.48-2.84-3.86-4-4.34-1.2-1.27,7.53-.55,14.42,1.22,21.78,1.83,7.58,3.49,15.21,5.53,22.74,4,14.94,9.55,29.79,18.44,42.58,9.57,13.76,23.2,22,35.51,33,13.26,11.76,24.31,25.7,35.27,39.55,1.8,2.27,5-.93,3.18-3.18Z"/><path class="cls-1" d="M221.58,106.83c.34-1.91,1-5.14,3.35-5.51,1.62-.25,3,1,4,2.1,1.86,2.23,5-1,3.18-3.18-2-2.39-5.23-4-8.38-3.26-4,.92-5.84,5-6.5,8.65-.51,2.83,3.83,4.05,4.34,1.2Z"/><path class="cls-1" d="M252.92,144.09a55.44,55.44,0,0,1,16.41-9.75,49.84,49.84,0,0,1,5.74-1.85c.55-.14,1.11-.25,1.67-.38.95-.24.91.3-.06-.36,2.4,1.63,4.66-2.27,2.27-3.89s-8.12,1.14-10.27,1.94a61.47,61.47,0,0,0-18.94,11.11c-2.19,1.9,1,5.07,3.18,3.18Z"/><path class="cls-1" d="M50.57,219.32c7.3.58,13.84-6.07,19.44-9.95l21.93-15.21c2.37-1.64.12-5.54-2.27-3.88l-18.8,13-9.4,6.52c-3.29,2.28-6.64,5.33-10.9,5-2.89-.24-2.87,4.27,0,4.5Z"/><path class="cls-1" d="M105.83,200.18c-1.68-14.53-12.92-25.26-16-39.38-3.49-15.74-.84-32.86.11-48.76,0-.77-.12-5.33.36-5.9,1.2-1.43,5,.16,6.35.71a19.71,19.71,0,0,1,9,7.67c4.29,6.59,4.82,14.24,6.55,21.68,1.54,6.66,4.93,11.76,9.7,16.56,5.91,6,13.41,11.86,12.62,21.17-.25,2.89,4.25,2.87,4.5,0,.67-8-3.93-14.41-9.29-19.82-3.26-3.28-6.91-6.29-9.53-10.15-2.91-4.29-3.76-9.26-4.68-14.25-1.44-7.78-3.58-15.69-9.2-21.58-3.86-4-11.51-8.63-17.4-6.68-2.3.76-2.82,2.51-3.14,4.69-.75,5.13-.64,10.55-1,15.72-.58,9.68-1.48,19.43-.85,29.13a61.36,61.36,0,0,0,6.34,24.24c4.15,8.11,10,15.64,11,25,.32,2.85,4.83,2.88,4.5,0Z"/><path class="cls-1" d="M93.45,261.48c18.38-36.54,63.42-48.67,83.14-84.32,1.4-2.53-2.48-4.81-3.89-2.27C153,210.48,108,222.55,89.56,259.21c-1.29,2.58,2.59,4.86,3.89,2.27Z"/><path class="cls-1" d="M116.9,125c1.12-12.92,8.91-23.73,14.53-35q3.87-7.77,7-15.88c2.21-5.69,3.52-11.81,5.85-17.43,1-2.34,1.35-3.24,4.09-3.44s3.83.58,5.28,3c1.71,2.86,2.11,6.4,2,9.66-.14,6.17-2,12.35-3.41,18.31q-4.74,19.67-10.7,39c-.85,2.77,3.49,4,4.34,1.2,5-16.34,9.83-32.94,13.15-49.72,1.24-6.23,2-13-.69-19-1.9-4.2-6.06-8.42-11.09-7.62s-6.81,5.65-8.12,9.87a203.13,203.13,0,0,1-9.59,25.6C123.24,97.13,113.73,109.7,112.4,125c-.25,2.88,4.25,2.86,4.5,0Z"/><path class="cls-1" d="M159.91,59c2-7.78,11.26-9.14,13.81-.72,2.42,8-.52,16.23-2.6,24q-6.6,24.45-13.18,48.91c-.76,2.8,3.58,4,4.34,1.2l9.56-35.49c2.84-10.54,7.89-22.39,7.24-33.47-.4-6.83-2.84-14.21-10.46-15.29-6.78-1-11.43,3.41-13.05,9.71-.72,2.81,3.62,4,4.34,1.2Z"/><path class="cls-1" d="M176.49,72.34c14.82-1.92,7.22,26.38,5,33.29-3.76,11.66-8.26,23.12-12.93,34.44-1.11,2.68,3.24,3.85,4.34,1.2,6.19-15,13.45-30.88,16.15-47,1.51-9,1.53-28.28-12.55-26.45-2.83.37-2.86,4.87,0,4.5Z"/><path class="cls-1" d="M186,105.94c6.9-.76,11,1.39,10.22,8.78s-4.27,14.92-7.34,21.72c-2.7,6-5.89,11.84-8.23,18-2.57,6.75-4.53,13.88-7.84,20.32-1.32,2.57,2.56,4.85,3.88,2.27,3.65-7.09,5.62-14.91,8.63-22.27,3.36-8.24,7.7-16.05,11-24.33,2.56-6.42,5.93-14.69,4.07-21.73-1.76-6.64-8.36-7.91-14.39-7.24-2.85.31-2.88,4.82,0,4.5Z"/><path class="cls-1" d="M133.31,126.34c7.68-.31,15.48,3.77,22,7.52a82.42,82.42,0,0,1,17.12,13.31c2,2.05,5.23-1.13,3.18-3.18a86.28,86.28,0,0,0-19.47-14.83c-6.84-3.77-14.83-7.64-22.8-7.32-2.89.11-2.9,4.61,0,4.5Z"/></svg>