<svg id="Layer_1" data-name="Layer 1" xmlns="http://www.w3.org/2000/svg" viewBox="0 0 640.49 332"><defs><style>.cls-1,.cls-3,.cls-4{fill:none;stroke:#8dcda0;stroke-miterlimit:10;}.cls-1{stroke-width:6px;}.cls-2{fill:#8dcda0;}.cls-3{stroke-width:3px;}.cls-4{stroke-width:2px;}</style></defs><title>derails-drawings</title><circle class="cls-1" cx="561.41" cy="250.47" r="48.72"/><circle class="cls-1" cx="295.49" cy="244.03" r="67.31"/><path class="cls-2" d="M386.36,147.48a4.75,4.75,0,0,0-2.54-2.12,4.19,4.19,0,0,0-2.12,0c-4.14,1-8.52.49-12.71,1.27-7,1.29-21.44,1.74-29.23,1.67-20.47-.18-31.77-4.68-38.13-7.64-4.88-2.29-7.95-5.91-14.4-8.06-2.12-.71-10.2-3.41-16.52.83a9.09,9.09,0,0,0-3.39,3.39c-3.16,6.74,6.59,25.24,20.74,28.4,3.81.85,41.52-2.94,54.23-3.78,20.92-1.38,42.8-9.72,43.22-11A19.37,19.37,0,0,0,386.36,147.48Z"/><path class="cls-3" d="M449.05,75.47c2.19-3.57,10.77-16.64,26.46-19.55,3.22-.59,11.35-2.1,17.69,2.06,5.25,3.45,6.45,9.28,7.3,10.85,6.56,12.18,29.28,80.53,62.13,179.39"/><path class="cls-3" d="M461.73,119.93c.13-5.82,8.42-22.75,14.79-34.62,5.91-11,12.71-12.43,15.79-12.88,4-.59,8.68,1.49,10.86,2.47"/><path class="cls-3" d="M542.5,189.82c-8.41-1-24.44-.55-38.69,2-33.38,5.85-56.89,27.26-59.89,23.75s18-28.32,39.73-44.73c16.46-12.45,33.71-21.29,44.85-25"/><path class="cls-3" d="M309.81,158.52c22.69,17.34,74.36,41.26,97.05,58.59"/><path class="cls-3" d="M471.45,181c-14.7-2.33-41.16.83-62.39,5.31-21.55,4.54-74.91,20.12-108.18,51.72"/><path class="cls-3" d="M450.62,234.68c.83-1.3,4.43-7.25,2.18-12.58-2.36-5.59-9.64-6.92-14.73-7.85a49.62,49.62,0,0,0-21.74,1c-10.47,2.92-30.39,5.63-56.83,6.58"/><rect class="cls-3" x="455.25" y="119.25" width="6.35" height="24.15" transform="translate(853.01 399.11) rotate(-161.82)"/><rect class="cls-3" x="435.24" y="68.67" width="6.36" height="33.43" transform="translate(682.73 459.29) rotate(-134.18)"/><rect class="cls-3" x="416.64" y="191.82" width="21.18" height="3.39" transform="translate(883.33 302.81) rotate(169.11)"/><rect class="cls-3" x="428.93" y="265.22" width="12.89" height="3.71" transform="translate(913.37 447.08) rotate(169.11)"/><line class="cls-3" x1="433.42" y1="231.75" x2="435.71" y2="264.25"/><line class="cls-3" x1="445.79" y1="219.05" x2="420.2" y2="244.4"/><line class="cls-3" x1="445.22" y1="244.92" x2="421.71" y2="217.33"/><circle class="cls-3" cx="432.77" cy="231.92" r="18.01"/><line class="cls-3" x1="590.31" y1="211.55" x2="533.26" y2="290.71"/><line class="cls-3" x1="560.01" y1="201.73" x2="563.71" y2="298.41"/><line class="cls-3" x1="601.3" y1="277.74" x2="523.94" y2="219.12"/><line class="cls-3" x1="513.19" y1="256.57" x2="608.75" y2="238.77"/><line class="cls-3" x1="602.99" y1="224.35" x2="519.53" y2="274.87"/><line class="cls-3" x1="536.98" y1="209.01" x2="588.83" y2="291.71"/><line class="cls-3" x1="542.31" y1="294.76" x2="580.11" y2="205.72"/><line class="cls-3" x1="517.72" y1="228.87" x2="607.27" y2="265.43"/><line class="cls-3" x1="325.12" y1="184.08" x2="267.25" y2="304.39"/><line class="cls-3" x1="307.95" y1="180.73" x2="283.43" y2="309.8"/><line class="cls-3" x1="289.02" y1="178.1" x2="311.08" y2="309.23"/><line class="cls-3" x1="269.49" y1="183.93" x2="330.18" y2="303.37"/><line class="cls-3" x1="362.3" y1="234.31" x2="230.43" y2="249.09"/><line class="cls-3" x1="256" y1="188.48" x2="336.1" y2="297.85"/><line class="cls-3" x1="255.06" y1="296.72" x2="299.25" y2="242.97"/><line class="cls-3" x1="242.74" y1="284.8" x2="299.25" y2="242.97"/><line class="cls-3" x1="233.78" y1="273.54" x2="299.25" y2="242.97"/><line class="cls-3" x1="358.65" y1="267.61" x2="237.53" y2="209.25"/><line class="cls-3" x1="362.76" y1="245.81" x2="228.77" y2="236.66"/><path class="cls-2" d="M136.84,68.66a3.9,3.9,0,0,0-2.06,0l-2.82.66,1.27,2.91,3-.63a2.94,2.94,0,0,0,1.65-.74c.08-.1.31-.41,0-1.17A1.84,1.84,0,0,0,136.84,68.66Z"/><path class="cls-2" d="M225.75,22.14c-6.35-4.14-17.3,2.91-32.45,9.55-26,11.4-28.69,5.95-62.91,18.38-16.51,6-14.32,6.7-41.55,18.37C41.3,88.81,23.39,91.5,24.07,96.52c.94,7.07,37.89,11.81,71.06,7.16,2.05-.28,15.51-3.4,42.34-9.62,43.41-10,45.1-10.64,51.7-10.89,25.58-1,41.54,6.18,46.28-.61,1.76-2.52-.19-3.86-2.1-15.23-2.1-12.54-.58-16-3.13-31.51C228.32,24.32,226.94,22.92,225.75,22.14ZM102.82,86.81c-.82.2-1.64.41-2.45.63l-.57.15-1.86-4.22c-2,.62-4.07,1.26-6,1.91l1.76,4-.65.2-2.39.73-.59.18L85.63,80.35l.58-.23,2.32-.92.62-.23,1.72,3.91c1.95-.67,4-1.33,6-2l-1.8-4.11.61-.21,2.39-.82.6-.2,4.85,11.06Zm19.78-5.54c-.82,1.09-2.32,1.84-4.57,2.29h0a10.42,10.42,0,0,1-5.52-.13,5.52,5.52,0,0,1-3.35-3.12L106,73.23l.66-.2,2.43-.73.58-.17,3,6.93a3,3,0,0,0,1.56,1.72,4.59,4.59,0,0,0,2.74.07,3.13,3.13,0,0,0,2.09-1.06,2.22,2.22,0,0,0-.15-2l-3.22-7.33.69-.19,2.45-.66.57-.15L122.79,77A4,4,0,0,1,122.6,81.27Zm20.27-2.33-.24-.17c-2-1.43-4-2.83-5.91-4.17l-2.27.45L136.61,80l-.78.13-2.5.43-.53.09L127,67.47l.7-.18,6.16-1.52a8.05,8.05,0,0,1,4.74.1,5.07,5.07,0,0,1,3,2.85,3.46,3.46,0,0,1-1.15,4.53c1.93,1.34,3.89,2.72,5.84,4.11l1.14.82Zm23.82-4-2.9.51-.31,0-.24-.19c-2.05-1.59-4.12-3.17-6.16-4.71l-2.25.44,2.42,5.51-3.82.63L147,62.59l.71-.17,6.16-1.5a7.67,7.67,0,0,1,4.8.2,5.78,5.78,0,0,1,3.16,3.15,4.37,4.37,0,0,1,.3,3.15,3.72,3.72,0,0,1-1.32,1.82c2,1.53,4.1,3.1,6.16,4.69l1,.81ZM187.3,70.9l-2.62.58-.41.09-.26-.31-3-3.47c-1.75.41-3.59.82-5.48,1.23.08,1.26.16,2.52.23,3.76l0,.51-.54.11-2.58.48-.76.15,0-.71c-.23-5.31-.52-10.82-.88-16.39l0-.47.49-.13,2.88-.82.43-.12.28.31c4.12,4.61,8.35,9.4,12.57,14.25l.63.73Zm19.56-5.19c-.81.26-1.62.5-2.43.75l-.59.17-3.27-7.47c-1.95.65-4,1.29-6,1.91l3.18,7.28-.69.18-2.44.63-.57.14-7.67-17.5.62-.21,2.36-.8.6-.21,3.1,7.06c2.05-.64,4.06-1.3,6-2l-3.18-7.26.58-.23,2.33-.91.63-.25,8.1,18.49Z"/><path class="cls-2" d="M175,60.73l0,.21c.12,1.6.23,3.16.33,4.7l3.22-.75-3.31-3.83Z"/><path class="cls-2" d="M156.92,64.06a3.43,3.43,0,0,0-2,0l-2.83.66,1.49,3.38q1.51-.3,3-.63a2.61,2.61,0,0,0,1.59-.77,1.42,1.42,0,0,0-.07-1.38A2.18,2.18,0,0,0,156.92,64.06Z"/><line class="cls-4" x1="215.65" y1="40.97" x2="274.26" y2="148.76"/></svg>