<svg id="Layer_1" data-name="Layer 1" xmlns="http://www.w3.org/2000/svg" viewBox="0 0 422.61 276"><defs><style>.cls-1{fill:#8dcda0;stroke:#8dcda0;stroke-miterlimit:10;}</style></defs><title>derails-drawings</title><g id="doslWO"><path class="cls-1" d="M370.38,87.48c-12.9-1.2-25.8-2.37-38.69-3.61a3.62,3.62,0,0,0-4,2.41,27.66,27.66,0,0,0-2.06,7.15c-1,9.81-1.8,19.64-2.64,29.47-.24,2.79,1.35,4,4,3.11a4.74,4.74,0,0,1,1.88-.34q17.85,1.55,35.71,3.16a4.93,4.93,0,0,1,.92.29c-1.58,8.46-5.76,15-13.63,18.83s-15.88,7.4-23.69,11.36C321,163,314,167,306.86,170.79c-2.77,1.45-5.76,2.47-8.93,3.81l.11-3.25-3.52-3.3,4-2.51c.3-1.48,1-3.55-2.16-4.16a1.45,1.45,0,0,1,.25-2.85c3,0,3-1.95,2.84-4.11-3-1.79-5.64-4.44-9.52-4.36-1.15,0-2.3.11-3.45.1-1.32,0-2.81.27-3.93-.23-6.08-2.75-12.44-1.89-18.71-1.54a73.24,73.24,0,0,0-21.81,5.12Q156.52,185.9,70.93,218.17c-2.63,1-5.37,1.7-8.05,2.54l-9.49-.88a76.54,76.54,0,0,1-7.46-4.36c-4.6-3.42-7-8.34-8.5-13.74l1.2-13a19.12,19.12,0,0,0,1-1.65,22.24,22.24,0,0,1,13.67-11.7Q117,155.17,180.71,134.88q30.6-9.74,61.18-19.47c13.63-4.35,24.42-12.9,33.94-23.2,7-7.54,13.76-15.26,20.52-23,6.33-7.25,13-13.76,23.59-13.61l10.48,1c2.53.74,5.11,1.36,7.59,2.24,13.88,4.94,26.68,11.27,32.6,26.16ZM322.05,142a11.71,11.71,0,0,0-.79,2.41c-.45,4.22-.81,8.46-1.21,12.69l-2.35.3-.1,4.1,18.65-8.86c4.89-2.33,9.82-4.61,14.67-7,5.92-2.95,9.62-7.72,11.38-14.37l-3-.28c-7.66-.68-15.31-1.41-23-2-10-.81-7.72-1.87-13.62,6.48-.19.27-.53.55-.53.83,0,1,.12,2.06.19,3.09Zm45.51-57.31a23.3,23.3,0,0,0-6.45-9.74C349.82,64.57,336.4,59.22,321.2,58.41c-4.51-.23-9.27.05-12.84,3.22-4.78,4.25-9.31,8.82-13.68,13.5-6.79,7.26-13.19,14.89-20.07,22.06-9.33,9.72-20.23,17.06-33.25,21.18Q169.27,141.19,97.23,164.2c-14.55,4.63-29.13,9.2-43.64,14A20.23,20.23,0,0,0,40,199,20.76,20.76,0,0,0,57.61,217.8c5,.72,9.38-1,13.85-2.65Q156.62,183,241.78,150.81a82.55,82.55,0,0,1,36.41-4.95,159.57,159.57,0,0,1,28.5,5.48c3.57,1,7.16,1.83,11.45,2.93.38-10.23.68-19.93,1.2-29.62,0-.81,1.12-1.37.21-2.58-.35-.47,1.29-2.3.95-3-.57-1.1.08-1.51.25-2.29.2-.94-.79-2.31-.39-3a4.16,4.16,0,0,0,.36-2.85,9.83,9.83,0,0,1,.89-3.17l.27-3.71c-.55-1.06-.12-2,.07-3.1s-.36-2.14-.19-3.16a39.9,39.9,0,0,1,1.29-5,62.75,62.75,0,0,1,2.5-8.06c1.2-2.67,3.57-3.81,6.6-3.47,3.91.43,7.82.73,11.74,1.09Zm-62.19,83.83c3-1.81,5.51-3.65,8.26-4.89,3.16-1.41,3.53-3.73,3.19-6.71l-10.13-2.64Zm-4.53,1.83c1.91.29,2.32-.76,2.43-2.15.37-4.39.71-8.79,1.13-13.17.17-1.74-.63-1.91-2-1.63Zm22.07-41.5-.51,5.51,3.52-5ZM304,168.74l.26.07,1.36-14.67-.27,0Z"/><path class="cls-1" d="M271.41,107l34.71,3.21,0,.4-1,.35c2.75,1.48,3.21,3.88,2.94,6.66q-.9,9.35-1.7,18.71c-.23,2.76-1.1,5.05-3.93,6.26l1.7-.24.09.56a15.49,15.49,0,0,1-3.21.4q-15.36-1.29-30.69-2.71c-1.34-.13-3.76-4-3.59-6,.62-7.49,1.19-15,2.16-22.43.21-1.65,2-3.09,3.1-4.67Zm7.66,22.43,16.62,6.25.44-4.72L279.48,125Zm.49-8.49,16.9,6.34.43-4.55L280.8,117Zm1.63-10.22-.62.74c.33.54.53,1.4,1,1.59,5.15,2.06,10.33,4,15.56,6,.85-4.52.93-4.8-3-5.87C289.89,112.05,285.5,111.51,281.19,110.71Zm-9.37,7.65,1.3-.28c1.05-.2,2.05-.24,2.15-1.81s-.69-1.7-1.69-2.26c-.79-.45-1.19-1.56-1.84-2.48l-2.24,24.15a18.37,18.37,0,0,0,3-1.08,2.38,2.38,0,0,0,1.2-1.52c.05-.67-.37-1.91-.77-2-2.74-.56-2.28-2.32-1.78-4.31a6.27,6.27,0,0,0,1.82-.48c.59-.36,1.38-1,1.42-1.52.06-.71-.41-2-.87-2.12C270.61,122,271.68,120.1,271.82,118.36Zm7.73-3.73-.1.66,22.07,8.28.6-.75c-.57-.58-1-1.42-1.73-1.68q-9.25-3.39-18.58-6.58A6.94,6.94,0,0,0,279.55,114.63Zm.09,8.48v.79l21.2,7.92.58-.59c-.54-.62-1-1.55-1.65-1.8-6-2.24-12-4.38-18.08-6.47A5.36,5.36,0,0,0,279.64,123.11Zm20.5,17.09.53-.92c-.48-.48-.88-1.17-1.46-1.39-6-2.22-12-4.4-18.07-6.49-.61-.21-1.44.22-2.17.36l0,.62Zm-21.36-2.4,15.42,1.43.06-.29-15.52-5.49Zm16.94-25.05,6.69,2.34.36-1.09C301.06,111.67,298.05,113.26,295.72,112.75Z"/><path class="cls-1" d="M96.05,200.11c-7.36-1.13-12.44-6-13.93-13.82-1.13-5.87,2.8-12.81,9-15.9a25.6,25.6,0,0,1,3.5-1.36l138.83-44.18c4-1.29,8.07-2.11,12.26-.6,4.38,1.57,7.45,5.43,7.55,9.66.12,4.87-2.91,9.81-7.17,11.4Q174.86,172,103.56,198.53C101.19,199.42,98.56,199.6,96.05,200.11Zm144.49-73.74c-3.14.47-6.54.57-9.68,1.53Q193.39,139.38,156,151.15q-30,9.48-59.79,19.46a23.14,23.14,0,0,0-8.74,5.54c-5.76,5.86-4.31,15,2.68,19.39,4.39,2.75,9,2.58,13.69.84q49.22-18.09,98.45-36.12,19.39-7.12,38.75-14.31c3.35-1.24,6.37-3,8.44-6,3.14-4.57,2.12-8.95-2.79-11.42A52.36,52.36,0,0,0,240.54,126.37Z"/><path class="cls-1" d="M43.51,194.84a18.39,18.39,0,1,1,16.43,20.07A18.33,18.33,0,0,1,43.51,194.84Zm16.88,17.53a15.71,15.71,0,1,0-14.23-17.19A15.9,15.9,0,0,0,60.39,212.37Z"/></g></svg>