<svg id="Layer_1" data-name="Layer 1" xmlns="http://www.w3.org/2000/svg" viewBox="0 0 127 112"><defs><style>.cls-1{fill:#8ccc9f;}</style></defs><title>derails-drawings</title><path class="cls-1" d="M47.42,38H84.5a0,0,0,0,1,0,0v.08A4.92,4.92,0,0,1,79.58,43H42.5a0,0,0,0,1,0,0v-.08A4.92,4.92,0,0,1,47.42,38Z"/><path class="cls-1" d="M47.42,53.5H84.5a0,0,0,0,1,0,0v.08a4.92,4.92,0,0,1-4.92,4.92H42.5a0,0,0,0,1,0,0v-.08A4.92,4.92,0,0,1,47.42,53.5Z"/><path class="cls-1" d="M47.42,69H84.5a0,0,0,0,1,0,0v.08A4.92,4.92,0,0,1,79.58,74H42.5a0,0,0,0,1,0,0v-.08A4.92,4.92,0,0,1,47.42,69Z"/></svg>